<svg width="32" height="36" viewBox="0 0 32 36" fill="none" xmlns="http://www.w3.org/2000/svg">
<path d="M31.7354 23.8765C31.4511 23.384 30.9253 23.0803 30.3568 23.0803H26.5938C26.2146 17.0898 23.7023 11.5095 19.4195 7.22723C14.7596 2.56738 8.56415 0.0012207 1.97429 0.0012207C1.09499 0.0012207 0.382324 0.713875 0.382324 1.59295C0.382324 2.47247 1.09521 3.18489 1.97429 3.18489C13.2871 3.18489 22.5855 11.9727 23.4028 23.0805H19.751C19.182 23.0805 18.6567 23.3843 18.3724 23.8767C18.0877 24.3694 18.0877 24.9762 18.3724 25.4689L23.675 34.6537C23.9597 35.1464 24.4851 35.4495 25.0536 35.4495C25.6225 35.4495 26.1481 35.1464 26.4323 34.6537L31.7351 25.4689C32.0194 24.976 32.0194 24.3691 31.7354 23.8765ZM25.0536 30.6732L22.5083 26.2642H27.5995L25.0536 30.6732Z" fill="#111111"/>
</svg>
