<svg width="32" height="37" viewBox="0 0 32 37" fill="none" xmlns="http://www.w3.org/2000/svg">
<path d="M29.9745 33.1589C24.2347 33.1589 18.839 30.9238 14.7803 26.8656C11.0994 23.1847 8.91854 18.4031 8.54485 13.2633H12.1976C12.198 13.2633 12.1985 13.2633 12.199 13.2633C13.0783 13.2633 13.7909 12.5507 13.7909 11.6714C13.7909 11.3563 13.6992 11.062 13.5409 10.815L8.2731 1.69077C7.98908 1.19834 7.46326 0.89502 6.89455 0.89502C6.32583 0.89502 5.80024 1.19834 5.516 1.69077L0.213184 10.8756C-0.0710614 11.3683 -0.0710614 11.9751 0.213184 12.4678C0.49743 12.9605 1.02302 13.2636 1.59173 13.2636H5.35458C5.73417 19.2547 8.2463 24.8343 12.5288 29.1168C17.1887 33.7771 23.3842 36.3431 29.9743 36.3431C30.8536 36.3431 31.566 35.6304 31.566 34.7509C31.5662 33.872 30.8538 33.1589 29.9745 33.1589ZM6.89477 5.67067L9.44027 10.0794H4.34928L6.89477 5.67067Z" fill="#111111"/>
</svg>
